<svg height="511pt" viewBox="1 -20 511.999 511" width="511pt" xmlns="http://www.w3.org/2000/svg"><path d="m451.523438 149.039062h-27.285157l-3.613281 5.867188c-1.445312 2.339844-3.851562 2.367188-5.351562.0625l-3.859376-5.929688h-42.078124c.386718 3.179688.605468 6.410157.605468 9.695313v58.574219c1.15625 2.390625 1.84375 5.035156 1.949219 7.832031h16.445313c13.753906 0 26.5-6.796875 34.101562-18.183594.835938-1.253906 2.246094-2.003906 3.75-2.003906 1.507812 0 2.914062.75 3.75 2.003906 7.601562 11.386719 20.351562 18.183594 34.101562 18.183594h8.210938c2.488281 0 4.507812 2.015625 4.507812 4.5v12.953125h10.65625c1.226563 0 2.417969.136719 3.574219.382812.347657-2.109374.535157-4.269531.535157-6.476562v-47.460938c0-22-18-40-40-40zm0 0" fill="#775436"/><path d="m458.183594 357.203125h-27.261719v5.917969c0 11-9 20-20 20h-11.820313c-11 0-20-9-20-20v-5.917969h-25.855468c5.535156 7.359375 8.820312 16.496094 8.820312 26.390625v75.40625c0 2.761719-2.238281 5-5 5h134.679688c2.371094 0 4.292968-1.921875 4.292968-4.292969v-64.710937c0-20.839844-16.980468-37.792969-37.855468-37.792969zm0 0" fill="#ef5050"/><path d="m417.539062 347.574219h-25.054687c-4.601563 0-9.082031-.546875-13.382813-1.542969v17.089844c0 11 9 20 20 20h11.820313c11 0 20-9 20-20v-17.089844c-4.304687.996094-8.78125 1.542969-13.382813 1.542969zm0 0" fill="#ffd5b3"/><path d="m487.417969 242.597656h-10.660157v45.894532c0 2.933593-.222656 5.816406-.640624 8.636718h11.300781c9.394531 0 17.082031-7.667968 17.082031-17.042968v-20.449219c0-9.371094-7.6875-17.039063-17.082031-17.039063zm0 0" fill="#ffd5b3"/><path d="m472.25 225.144531h-8.207031c-13.753907 0-26.5-6.800781-34.101563-18.1875-.835937-1.25-2.242187-2.003906-3.75-2.003906-1.507812 0-2.914062.753906-3.75 2.003906-7.601562 11.386719-20.351562 18.1875-34.101562 18.1875h-16.449219c.007813.242188.035156.480469.035156.726563v23.828125c0 3.066406-.726562 5.964843-1.984375 8.566406v55.652344c0 2.894531-2.347656 5.242187-5.25 5.242187h-22.808594c10.40625 17.019532 29.195313 28.410156 50.601563 28.410156h25.054687c32.652344 0 59.21875-26.5 59.21875-59.078124v-58.851563c0-2.484375-2.019531-4.496094-4.507812-4.496094zm0 0" fill="#ffd5b3"/><path d="m173.140625 269.558594h-13.164063c-7.871093 0-14.695312-4.632813-17.917968-11.292969v55.652344c0 2.894531 2.347656 5.242187 5.25 5.242187h59.738281c-17.910156-10.304687-30.773437-28.390625-33.90625-49.601562zm0 0" fill="#f7931e"/><path d="m334.351562 185.675781c2.898438 0 5.25 2.351563 5.25 5.242188v15.097656h12.417969c7.875 0 14.699219 4.632813 17.921875 11.292969v-58.570313c0-10.136719-1.894531-19.828125-5.324218-28.773437h-15.617188c-2.75 0-5-2.25-5-5v-25.417969c-14.433594-13.359375-33.730469-21.546875-54.917969-21.546875h-66.160156c-10.78125 0-21.070313 2.132812-30.484375 5.972656v21.992188c0 2.75-2.25 5-5 5h-15.296875c-2.75 0-5 2.25-5 5v19.195312c0 2.75-1.761719 3.597656-3.910156 1.886719l-14.113281-11.238281c-4.523438 10.0625-7.058594 21.203125-7.058594 32.929687v58.570313c3.222656-6.660156 10.046875-11.292969 17.921875-11.292969h12.417969v-15.097656c0-2.894531 2.351562-5.242188 5.25-5.242188h58.925781c16.023437 0 30.878906-7.917969 39.738281-21.1875.972656-1.457031 2.613281-2.332031 4.367188-2.332031 1.757812 0 3.394531.875 4.367187 2.332031 8.859375 13.269531 23.714844 21.1875 39.738281 21.1875zm0 0" fill="#f7931e"/><path d="m352.019531 269.558594h-13.164062c-3.128907 21.210937-15.996094 39.296875-33.90625 49.601562h59.742187c2.902344 0 5.25-2.347656 5.25-5.242187v-55.652344c-3.222656 6.660156-10.046875 11.292969-17.921875 11.292969zm0 0" fill="#f7931e"/><path d="m405.011719 327.089844c-16.378907 0-29.703125-12.058594-29.703125-26.882813 0-2.386719 1.9375-4.320312 4.332031-4.320312h50.746094c2.390625 0 4.328125 1.933593 4.328125 4.320312 0 14.824219-13.328125 26.882813-29.703125 26.882813zm0 0" fill="#fb8276"/><path d="m142.058594 217.308594v-58.570313c0-3.285156.203125-6.519531.589844-9.699219h-82.171876c-22 0-40 18-40 40v47.464844c0 2.203125.1875 4.367188.535157 6.476563 1.152343-.246094 2.347656-.382813 3.570312-.382813h10.660157v-12.957031c0-2.480469 2.015624-4.496094 4.503906-4.496094h50.570312c13.75 0 26.5-6.796875 34.101563-18.1875.835937-1.25 2.242187-2 3.75-2 1.507812 0 2.914062.75 3.75 2 2.753906 4.125 6.1875 7.636719 10.09375 10.449219.011719-.03125.03125-.066406.046875-.097656zm0 0" fill="#0291c9"/><path d="m149.933594 459v-75.40625c0-9.894531 3.285156-19.03125 8.820312-26.390625h-25.855468v5.917969c0 11-9 20-20 20h-11.820313c-11 0-20-9-20-20v-5.917969h-27.261719c-20.875 0-37.855468 16.953125-37.855468 37.792969v64.710937c0 2.371094 1.921874 4.292969 4.292968 4.292969h134.679688c-2.761719 0-5-2.238281-5-5zm0 0" fill="#d5e962"/><path d="m119.515625 347.574219h-25.054687c-4.601563 0-9.078126-.546875-13.382813-1.542969v17.089844c0 11 9 20 20 20h11.820313c11 0 20-9 20-20v-17.089844c-4.300782.996094-8.777344 1.542969-13.382813 1.542969zm0 0" fill="#ffd5b3"/><path d="m35.242188 288.492188v-45.894532h-10.660157c-9.394531 0-17.082031 7.667969-17.082031 17.039063v20.449219c0 9.375 7.6875 17.042968 17.082031 17.042968h11.296875c-.414062-2.820312-.636718-5.703125-.636718-8.636718zm0 0" fill="#ffd5b3"/><path d="m142.058594 313.917969v-55.652344c-1.257813-2.601563-1.984375-5.5-1.984375-8.5625v-23.828125c0-3.027344.707031-5.894531 1.9375-8.46875-3.90625-2.8125-7.339844-6.324219-10.09375-10.449219-.835938-1.25-2.242188-2-3.75-2-1.507813 0-2.914063.75-3.75 2-7.601563 11.390625-20.351563 18.1875-34.101563 18.1875h-50.570312c-2.488282 0-4.503906 2.015625-4.503906 4.496094v58.855469c0 32.578125 26.566406 59.078125 59.21875 59.078125h25.054687c21.40625 0 40.195313-11.390625 50.597656-28.414063h-22.804687c-2.902344 0-5.25-2.347656-5.25-5.242187zm0 0" fill="#ffd5b3"/><path d="m106.988281 327.089844c-16.378906 0-29.699219-12.058594-29.699219-26.882813 0-2.386719 1.9375-4.320312 4.328126-4.320312h50.746093c2.390625 0 4.328125 1.933593 4.328125 4.320312 0 14.824219-13.324218 26.882813-29.703125 26.882813zm0 0" fill="#fb8276"/><path d="m317.960938 339.554688h-31.769532v10.203124c0 11-9 20-20 20h-20.382812c-11 0-20-9-20-20v-10.203124h-31.769532c-24.320312 0-44.105468 19.757812-44.105468 44.039062v75.40625c0 2.761719 2.238281 5 5 5h202.132812c2.761719 0 5-2.238281 5-5v-75.40625c0-24.285156-19.785156-44.039062-44.105468-44.039062zm0 0" fill="#75eae7"/><g fill="#ffd5b3"><path d="m270.597656 328.335938h-29.195312c-5.363282 0-10.578125-.632813-15.59375-1.796876v23.21875c0 11 9 20 20 20h20.382812c11 0 20-9 20-20v-23.21875c-5.015625 1.164063-10.230468 1.796876-15.59375 1.796876zm0 0"/><path d="m352.019531 206.015625h-12.417969v53.480469c0 3.417968-.261718 6.777344-.746093 10.0625h13.164062c10.949219 0 19.90625-8.933594 19.90625-19.855469v-23.828125c0-10.925781-8.957031-19.859375-19.90625-19.859375zm0 0"/><path d="m172.398438 259.496094v-53.480469h-12.421876c-10.945312 0-19.902343 8.9375-19.902343 19.855469v23.828125c0 10.925781 8.957031 19.859375 19.902343 19.859375h13.164063c-.484375-3.285156-.742187-6.644532-.742187-10.0625zm0 0"/><path d="m241.402344 328.335938c-38.050782 0-69.003906-30.882813-69.003906-68.839844v-68.578125c0-2.894531 2.347656-5.242188 5.25-5.242188h58.921874c16.027344 0 30.882813-7.917969 39.738282-21.1875.976562-1.457031 2.613281-2.332031 4.371094-2.332031 1.753906 0 3.394531.875 4.367187 2.332031 8.859375 13.269531 23.714844 21.1875 39.738281 21.1875h9.5625c2.902344 0 5.253906 2.351563 5.253906 5.242188v68.578125c0 37.957031-30.957031 68.839844-69.003906 68.839844zm0 0"/></g><path d="m256 304.46875c-19.085938 0-34.609375-14.050781-34.609375-31.324219 0-2.78125 2.257813-5.035156 5.046875-5.035156h59.128906c2.785156 0 5.042969 2.253906 5.042969 5.035156 0 17.273438-15.527344 31.324219-34.609375 31.324219zm0 0" fill="#fb8276"/><path d="m59 13c0-2.75 2.25-5 5-5h123.4375c2.75 0 5 2.25 5 5v92.964844c0 2.75-2.25 5-5 5h-15.296875c-2.75 0-5 2.25-5 5v19.195312c0 2.75-1.761719 3.597656-3.910156 1.886719l-28.839844-22.964844c-2.152344-1.714843-6.164063-3.117187-8.914063-3.117187h-61.476562c-2.75 0-5-2.25-5-5zm0 0" fill="#ffc502"/><path d="m477.4375 32c0-2.75-2.25-5-5-5h-123.4375c-2.75 0-5 2.25-5 5v92.964844c0 2.75 2.25 5 5 5h45c2.75 0 6.226562 1.886718 7.726562 4.191406l13.546876 20.8125c1.5 2.308594 3.90625 2.277344 5.351562-.0625l12.753906-20.683594c1.441406-2.339844 4.871094-4.257812 7.621094-4.257812h31.4375c2.75 0 5-2.25 5-5zm0 0" fill="#ffc502"/><path d="m498.984375 237.992188c.015625-.496094.039063-.992188.039063-1.488282v-47.464844c0-26.191406-21.308594-47.5-47.5-47.5h-13.847657l2.042969-3.3125c.261719-.289062.976562-.6875 1.363281-.761718h31.355469c6.890625 0 12.5-5.605469 12.5-12.5v-9.964844c0-4.144531-3.359375-7.5-7.5-7.5s-7.5 3.355469-7.5 7.5v7.464844h-28.9375c-5.324219 0-11.214844 3.289062-14.007812 7.820312l-9.164063 14.863282-9.8125-15.082032c-2.867187-4.402344-8.761719-7.601562-14.015625-7.601562h-42.5v-87.964844h118.4375v45.5c0 4.140625 3.359375 7.5 7.5 7.5s7.5-3.359375 7.5-7.5v-48c0-6.894531-5.605469-12.5-12.5-12.5h-123.4375c-6.894531 0-12.5 5.605469-12.5 12.5v52.335938c-13.710938-8.746094-29.976562-13.835938-47.417969-13.835938h-66.160156c-7.949219 0-15.652344 1.058594-22.984375 3.03125v-4.53125c0-4.144531-3.359375-7.5-7.5-7.5s-7.5 3.355469-7.5 7.5v34.464844h-12.796875c-6.894531 0-12.5 5.609375-12.5 12.5v8.636718l-20.578125-16.386718c-3.457031-2.753906-9.167969-4.75-13.585938-4.75h-58.976562v-87.964844h118.4375v18.5c0 4.140625 3.359375 7.5 7.5 7.5s7.5-3.359375 7.5-7.5v-21c0-6.894531-5.605469-12.5-12.5-12.5h-123.4375c-6.894531 0-12.5 5.605469-12.5 12.5v92.964844c0 6.894531 5.605469 12.5 12.5 12.5h61.476562c1.046876 0 3.421876.832031 4.242188 1.484375l10.316406 8.214843c-1.601562 4.3125-2.878906 8.777344-3.792968 13.375h-75.765626c-26.191406 0-47.5 21.308594-47.5 47.5v47.464844c0 .496094.023438.992188.039063 1.488282-7.738281 4.136718-13.015625 12.285156-13.015625 21.644531v20.449219c0 13.535156 11.027344 24.542968 24.582031 24.542968h5.152344c5.085937 20.308594 19.535156 36.949219 38.492187 45.074219h-14.410156c-25.007812 0-45.355468 20.316406-45.355468 45.292969v64.710937c0 6.503907 5.292968 11.792969 11.792968 11.792969h471.492188c6.5 0 11.789062-5.289062 11.789062-11.792969v-64.710937c0-24.976563-20.34375-45.292969-45.351562-45.292969h-14.410156c18.957031-8.125 33.40625-24.765625 38.492187-45.074219h5.148437c13.558594 0 24.585938-11.007812 24.585938-24.542968v-20.449219c0-9.359375-5.277344-17.507813-13.015625-21.644531zm-103.542969-99.746094 2.144532 3.292968h-21.847657c-.273437-1.367187-.570312-2.730468-.90625-4.074218l19.070313-.003906c.433594.054687 1.3125.53125 1.539062.785156zm-29.175781 211.457031h-9.476563c-9.46875-10.804687-23.359374-17.648437-38.828124-17.648437h-23.628907c4.382813-1.429688 8.601563-3.230469 12.601563-5.394532h30.933594c7.097656 10.085938 16.921874 18.125 28.398437 23.042969zm20.335937 5.101563c1.9375.171874 3.898438.269531 5.882813.269531h25.054687c1.984376 0 3.941407-.105469 5.882813-.273438v8.324219c0 6.890625-5.605469 12.5-12.5 12.5h-11.820313c-6.894531 0-12.5-5.609375-12.5-12.5zm-231.390624-5.101563h-9.476563c11.476563-4.917969 21.300781-12.957031 28.398437-23.042969h30.933594c3.996094 2.160156 8.214844 3.964844 12.601563 5.394532h-23.628907c-15.46875 0-29.359374 6.84375-38.828124 17.648437zm-66.632813 5.097656c1.941406.167969 3.898437.273438 5.882813.273438h25.054687c1.984375 0 3.945313-.097657 5.882813-.269531v8.316406c0 6.894531-5.605469 12.5-12.5 12.5h-11.820313c-6.894531 0-12.5-5.605469-12.5-12.5zm76.382813-92.742187h-4.984376c-6.839843 0-12.402343-5.542969-12.402343-12.355469v-23.828125c0-6.816406 5.5625-12.359375 12.402343-12.359375h4.921876v45.980469c0 .859375.035156 1.710937.0625 2.5625zm-15.402344 12.941406c3.214844 1.324219 6.730468 2.058594 10.417968 2.058594h6.988282c3.121094 13.175781 9.667968 25.039062 18.652344 34.601562h-36.058594zm121.039062 45.835938h-29.195312c-33.914063 0-61.503906-27.515626-61.503906-61.339844v-66.320313h56.671874c17.453126 0 33.710938-8.125 44.109376-21.894531 10.398437 13.769531 26.65625 21.894531 44.105468 21.894531h7.316406v66.320313c0 33.824218-27.589843 61.339844-61.503906 61.339844zm-37.289062 14.570312c2.660156.277344 5.359375.429688 8.09375.429688h29.195312c2.734375 0 5.433594-.152344 8.09375-.429688v14.351562c0 6.894532-5.605468 12.5-12.5 12.5h-20.382812c-6.894532 0-12.5-5.605468-12.5-12.5zm93.070312-23.746094c8.988282-9.5625 15.53125-21.425781 18.65625-34.601562h6.984375c3.691407 0 7.207031-.734375 10.421875-2.0625v36.664062zm20.722656-52.164062v-45.980469h4.917969c6.84375 0 12.40625 5.542969 12.40625 12.355469v23.828125c0 6.816406-5.5625 12.359375-12.40625 12.359375h-4.984375c.03125-.851563.066406-1.703125.066406-2.5625zm-188.546874-116.582032c2.089843 1.664063 4.449218 2.519532 6.75 2.519532 1.355468 0 2.691406-.296875 3.941406-.898438 3.375-1.628906 5.394531-5.132812 5.394531-9.375v-16.691406h12.796875c6.894531 0 12.5-5.609375 12.5-12.5v-16.761719c7.234375-2.394531 14.957031-3.707031 22.984375-3.707031h66.160156c18.074219 0 34.621094 6.582031 47.417969 17.441406v22.023438c0 6.894531 5.605469 12.5 12.5 12.5h10.265625c2.054687 6.734375 3.175781 13.875 3.175781 21.269531v41.839844c-3.214844-1.324219-6.730468-2.0625-10.421875-2.0625h-4.917969v-7.59375c0-7.027344-5.71875-12.742188-12.75-12.742188h-9.566406c-13.511718 0-26.035156-6.675781-33.5-17.851562-2.367187-3.550781-6.332031-5.671875-10.605468-5.671875-4.269532 0-8.234376 2.121094-10.605469 5.671875-7.464844 11.175781-19.988281 17.851562-33.503907 17.851562h-58.921874c-7.03125 0-12.75 5.714844-12.75 12.742188v7.59375h-4.921876c-3.6875 0-7.203124.738281-10.417968 2.0625v-41.839844c0-7.15625 1.050781-14.070313 2.980468-20.613281zm-133.972657 146.714844c-5.28125 0-9.582031-4.28125-9.582031-9.542968v-20.449219c0-5.261719 4.300781-9.539063 9.582031-9.539063h3.160157v38.394532c0 .382812.023437.757812.027343 1.136718zm3.394531-62.339844v-38.25c0-17.921874 14.578126-32.5 32.5-32.5h74.113282c-.019532.730469-.03125 1.460938-.03125 2.195313v40.582031c-1.886719-1.1875-4.085938-1.863281-6.390625-1.863281-4.019531 0-7.753907 1.996094-9.988281 5.339844-6.207032 9.296875-16.625 14.851562-27.863282 14.851562h-50.570312c-5.8125 0-10.671875 4.152344-11.769532 9.644531zm14.765626 61.203126v-55.851563h47.574218c14.847656 0 28.707032-6.703125 37.851563-18.121094 1.558593 1.941407 3.257812 3.738281 5.066406 5.398438-.425781 1.917969-.660156 3.90625-.660156 5.953125v23.828125c0 3.605469.707031 7.046875 1.984375 10.203125v28.691406c-.714844-.132812-1.445313-.210938-2.195313-.210938h-50.746093c-6.523438 0-11.832032 5.304688-11.832032 11.824219 0 18.957031 16.691406 34.378907 37.203125 34.378907 12.105469 0 22.875-5.375 29.675781-13.671876 2.28125 3.457032 6.199219 5.742188 10.644532 5.742188h6.925781c-9.1875 8.320312-21.359375 13.414062-34.71875 13.414062h-25.054687c-28.519532.003907-51.71875-23.136718-51.71875-51.578124zm86.152343 14.894531c-1.742187 9.179687-10.902343 16.203125-21.90625 16.203125-11.003906 0-20.160156-7.023438-21.902343-16.203125zm-105.429687 91.609375c0-16.703125 13.613281-30.292969 30.351562-30.292969h19.808594c.824219 14.429687 12.820312 25.917969 27.453125 25.917969h11.820313c14.632812 0 26.632812-11.488282 27.453124-25.917969h5.6875c-2.316406 5.851563-3.605468 12.222656-3.605468 18.890625v72.90625h-118.96875zm465.074218 0v61.503906h-118.972656v-18.5c0-4.144531-3.355468-7.5-7.5-7.5-4.140625 0-7.5 3.355469-7.5 7.5v18.5h-197.132812v-72.90625c0-20.148438 16.421875-36.539062 36.605468-36.539062h24.269532v2.703124c0 15.164063 12.335937 27.5 27.5 27.5h20.382812c15.164063 0 27.5-12.335937 27.5-27.5v-2.703124h24.269532c20.183593 0 36.605468 16.394531 36.605468 36.539062v19.40625c0 4.140625 3.359375 7.5 7.5 7.5 4.144532 0 7.5-3.359375 7.5-7.5v-19.40625c0-6.667969-1.289062-13.039062-3.605468-18.890625h5.6875c.820312 14.429687 12.816406 25.917969 27.453124 25.917969h11.820313c14.632813 0 26.628906-11.488282 27.453125-25.917969h19.808594c16.738281 0 30.355468 13.589844 30.355468 30.292969zm-19.28125-106.503906c0 28.441406-23.199218 51.582031-51.71875 51.582031h-25.054687c-13.359375 0-25.535156-5.09375-34.71875-13.414063h6.925781c4.445313 0 8.363282-2.289062 10.644532-5.746094 6.796874 8.300782 17.570312 13.675782 29.675781 13.675782 20.511719 0 37.203125-15.425782 37.203125-34.382813 0-6.515625-5.308594-11.820312-11.832032-11.820312h-50.742187c-.753906 0-1.484375.078125-2.199219.210937v-28.695312c1.277344-3.152344 1.984375-6.597656 1.984375-10.199219v-17.058594h8.910157c14.847656 0 28.710937-6.707031 37.855468-18.121093 9.144532 11.417968 23.003906 18.121093 37.851563 18.121093h5.214843zm-86.148437 14.894531h43.804687c-1.742187 9.179687-10.902343 16.203125-21.902343 16.203125-11.003907 0-20.160157-7.023438-21.902344-16.203125zm80.933594-85.742188c-11.242188 0-21.65625-5.554687-27.863281-14.847656-2.230469-3.347656-5.964844-5.34375-9.988282-5.34375-4.019531 0-7.753906 1.996094-9.988281 5.339844-6.207031 9.296875-16.625 14.851562-27.867187 14.851562h-10.179688c-.210938-.671875-.453125-1.328125-.714844-1.972656v-56.9375c0-.734375-.027344-1.464844-.042968-2.195313h29.949218l1.640625 2.519532c2.121094 3.261718 5.375 5.121094 8.949219 5.121094h.125c3.621094-.046876 6.882812-1.992188 8.945312-5.339844l1.421876-2.300782h23.09375c17.921874 0 32.5 14.578126 32.5 32.5v38.257813c-1.09375-5.496094-5.953126-9.65625-11.769532-9.65625h-8.210937zm32.957031 62.441407c0 5.261718-4.300781 9.542968-9.582031 9.542968h-3.1875c.003906-.378906.027343-.753906.027343-1.136718v-38.394532h3.160157c5.28125 0 9.582031 4.277344 9.582031 9.539063zm0 0"/><path d="m440.316406 239.238281c-4.140625 0-7.5 3.355469-7.5 7.5v13.632813c0 4.144531 3.359375 7.5 7.5 7.5s7.5-3.355469 7.5-7.5v-13.632813c0-4.140625-3.359375-7.5-7.5-7.5zm0 0"/><path d="m415.261719 268.019531h-6.167969v-10.480469c0-4.144531-3.359375-7.5-7.5-7.5s-7.5 3.355469-7.5 7.5v12.980469c0 6.894531 5.605469 12.5 12.5 12.5h8.667969c4.140625 0 7.5-3.355469 7.5-7.5 0-4.140625-3.359375-7.5-7.5-7.5zm0 0"/><path d="m79.183594 260.371094v-13.632813c0-4.144531-3.359375-7.5-7.5-7.5s-7.5 3.355469-7.5 7.5v13.632813c0 4.144531 3.359375 7.5 7.5 7.5s7.5-3.355469 7.5-7.5zm0 0"/><path d="m108.570312 283.019531h8.667969c4.144531 0 7.5-3.355469 7.5-7.5 0-4.140625-3.355469-7.5-7.5-7.5h-6.167969v-10.480469c0-4.144531-3.355468-7.5-7.5-7.5-4.140624 0-7.5 3.355469-7.5 7.5v12.980469c0 6.894531 5.609376 12.5 12.5 12.5zm0 0"/><path d="m222.363281 226.726562v-15.886718c0-4.140625-3.359375-7.5-7.5-7.5-4.144531 0-7.5 3.359375-7.5 7.5v15.886718c0 4.144532 3.355469 7.5 7.5 7.5 4.140625 0 7.5-3.355468 7.5-7.5zm0 0"/><path d="m297.136719 203.339844c-4.140625 0-7.5 3.359375-7.5 7.5v15.886718c0 4.144532 3.359375 7.5 7.5 7.5 4.144531 0 7.5-3.355468 7.5-7.5v-15.886718c0-4.140625-3.355469-7.5-7.5-7.5zm0 0"/><path d="m257.019531 251.878906h10.925781c4.140626 0 7.5-3.355468 7.5-7.5 0-4.144531-3.359374-7.5-7.5-7.5h-8.425781v-13.453125c0-4.144531-3.359375-7.5-7.5-7.5-4.144531 0-7.5 3.355469-7.5 7.5v15.953125c0 6.894532 5.605469 12.5 12.5 12.5zm0 0"/><path d="m285.566406 260.609375h-59.128906c-6.917969 0-12.546875 5.621094-12.546875 12.535156 0 21.40625 18.890625 38.824219 42.105469 38.824219 23.222656 0 42.113281-17.417969 42.113281-38.824219 0-6.914062-5.628906-12.535156-12.542969-12.535156zm-29.566406 36.359375c-14.003906 0-25.558594-9.378906-26.964844-21.359375h53.933594c-1.410156 11.980469-12.96875 21.359375-26.96875 21.359375zm0 0"/><path d="m162.003906 28.171875h-72.566406c-4.144531 0-7.5 3.355469-7.5 7.5 0 4.140625 3.355469 7.5 7.5 7.5h72.566406c4.140625 0 7.5-3.359375 7.5-7.5 0-4.144531-3.359375-7.5-7.5-7.5zm0 0"/><path d="m169.503906 59.480469c0-4.140625-3.359375-7.5-7.5-7.5h-72.566406c-4.144531 0-7.5 3.359375-7.5 7.5 0 4.144531 3.355469 7.5 7.5 7.5h72.566406c4.140625 0 7.5-3.355469 7.5-7.5zm0 0"/><path d="m89.4375 75.792969c-4.144531 0-7.5 3.359375-7.5 7.5 0 4.144531 3.355469 7.5 7.5 7.5h32.421875c4.144531 0 7.5-3.355469 7.5-7.5 0-4.140625-3.355469-7.5-7.5-7.5zm0 0"/><path d="m447.003906 47.171875h-72.570312c-4.140625 0-7.5 3.355469-7.5 7.5 0 4.140625 3.359375 7.5 7.5 7.5h72.570312c4.140625 0 7.5-3.359375 7.5-7.5 0-4.144531-3.359375-7.5-7.5-7.5zm0 0"/><path d="m454.503906 78.480469c0-4.140625-3.359375-7.5-7.5-7.5h-72.570312c-4.140625 0-7.5 3.359375-7.5 7.5 0 4.144531 3.359375 7.5 7.5 7.5h72.570312c4.140625 0 7.5-3.355469 7.5-7.5zm0 0"/><path d="m374.433594 94.792969c-4.140625 0-7.5 3.359375-7.5 7.5 0 4.144531 3.359375 7.5 7.5 7.5h32.425781c4.140625 0 7.5-3.355469 7.5-7.5 0-4.140625-3.359375-7.5-7.5-7.5zm0 0"/></svg>